<?xml version="1.0" encoding="UTF-8"?>
<svg width="522px" height="461px" viewBox="0 0 522 461" version="1.1" xmlns="http://www.w3.org/2000/svg" xmlns:xlink="http://www.w3.org/1999/xlink">
    <!-- Generator: Sketch 48 (47235) - http://www.bohemiancoding.com/sketch -->
    <title>Artboard@2x</title>
    <desc>Created with Sketch.</desc>
    <defs>
        <polygon id="path-1" points="27.0820312 9 302 9 302 119.285156 276.035156 174 9 174 9 39.0585938"></polygon>
        <filter x="-1.2%" y="-2.1%" width="102.4%" height="104.2%" filterUnits="objectBoundingBox" id="filter-2">
            <feGaussianBlur stdDeviation="3.5" in="SourceAlpha" result="shadowBlurInner1"></feGaussianBlur>
            <feOffset dx="0" dy="0" in="shadowBlurInner1" result="shadowOffsetInner1"></feOffset>
            <feComposite in="shadowOffsetInner1" in2="SourceAlpha" operator="arithmetic" k2="-1" k3="1" result="shadowInnerInner1"></feComposite>
            <feColorMatrix values="0 0 0 0 0   0 0 0 0 0.454901961   0 0 0 0 0.51372549  0 0 0 1 0" type="matrix" in="shadowInnerInner1"></feColorMatrix>
        </filter>
        <polygon id="path-3" points="18.0820312 0 293 0 293 110.285156 267.035156 165 0 165 0 30.0585938"></polygon>
        <polygon id="path-5" points="8.08203125 0 180 0 180 130.285156 164.035156 154 0 154 0 20.0585937"></polygon>
        <polygon id="path-6" points="8.08203125 0 180 0 180 130.285156 164.035156 154 0 154 0 20.0585937"></polygon>
        <path d="M47.6526852,35.7582536 L8,35.7582536 C5.790861,35.7582536 4,33.9809218 4,31.7884719 L4,7.9697817 C4,5.77733181 5.790861,4 8,4 L100,4 C102.209139,4 104,5.77733181 104,7.9697817 L104,31.7884719 C104,33.9809218 102.209139,35.7582536 100,35.7582536 L60.3144531,35.7582536 L60.1472202,35.7582536 C60.095646,35.8753843 60.0227889,35.9864721 59.9286249,36.0864986 L54.6868612,41.6550336 C54.6169677,41.7293073 54.4767691,41.8039273 54.4069854,41.8782009 L54.3370919,41.9523592 C53.986472,42.1020608 53.4944461,42.0307015 53.2119908,41.7368674 L47.9161125,36.1510769 C47.7970365,36.0271446 47.7105282,35.8944776 47.6526852,35.7582536 Z" id="path-8"></path>
        <filter x="-6.5%" y="-17.1%" width="113.0%" height="134.2%" filterUnits="objectBoundingBox" id="filter-9">
            <feMorphology radius="0.5" operator="dilate" in="SourceAlpha" result="shadowSpreadOuter1"></feMorphology>
            <feOffset dx="0" dy="0" in="shadowSpreadOuter1" result="shadowOffsetOuter1"></feOffset>
            <feGaussianBlur stdDeviation="2" in="shadowOffsetOuter1" result="shadowBlurOuter1"></feGaussianBlur>
            <feComposite in="shadowBlurOuter1" in2="SourceAlpha" operator="out" result="shadowBlurOuter1"></feComposite>
            <feColorMatrix values="0 0 0 0 0   0 0 0 0 0.0274509804   0 0 0 0 0.031372549  0 0 0 0.5 0" type="matrix" in="shadowBlurOuter1"></feColorMatrix>
        </filter>
    </defs>
    <g id="Page-1" stroke="none" stroke-width="1" fill="none" fill-rule="evenodd">
        <g id="Artboard">
            <path d="M32,11 L32,10 L31,11 L32,11 Z M32,11 L41,11 L42,10 L31,10 L31,21 L32,20 L32,11 Z M31,11 L32,10 L32,11 L31,11 Z M32,11 L41,11 L42,10 L31,10 L31,21 L32,20 L32,11 Z" id="左上" fill="#2BD4EA" fill-rule="nonzero" transform="translate(36.500000, 15.500000) scale(-1, 1) translate(-36.500000, -15.500000) "></path>
            <path d="M53,11 L53,10 L52,11 L53,11 Z M53,11 L62,11 L63,10 L52,10 L52,21 L53,20 L53,11 Z M52,11 L53,10 L53,11 L52,11 Z M53,11 L62,11 L63,10 L52,10 L52,21 L53,20 L53,11 Z" id="左上" fill="#2BD4EA" fill-rule="nonzero" transform="translate(57.500000, 15.500000) scale(1, -1) translate(-57.500000, -15.500000) "></path>
            <path d="M84,20 L83,21 L83,20 L84,20 Z M83,11 L84,10 L84,21 L73,21 L74,20 L83,20 L83,11 Z M84,20 L83,21 L83,20 L84,20 Z M83,11 L84,10 L84,21 L73,21 L74,20 L83,20 L83,11 Z" id="右下" fill="#2BD4EA" fill-rule="nonzero"></path>
            <path d="M53,21 L52,20 L53,20 L53,21 Z M53,11 L52,10 L52,21 L63,21 L62,20 L53,20 L53,11 Z M53,21 L52,20 L53,20 L53,21 Z M62,20 L63,21 L52,21 L52,10 L53,11 L53,20 L62,20 Z" id="左下" fill="#2BD4EA" fill-rule="nonzero"></path>
            <path d="M11,11 L11,10 L10,11 L11,11 Z M11,11 L20,11 L21,10 L10,10 L10,21 L11,20 L11,11 Z M10,11 L11,10 L11,11 L10,11 Z M11,11 L20,11 L21,10 L10,10 L10,21 L11,20 L11,11 Z" id="左上" fill="#2BD4EA" fill-rule="nonzero"></path>
            <g id="标题" transform="translate(10.000000, 31.000000)">
                <path d="M264.5,1.42539053 L264.5,48.5746095 L283.359688,25 L264.5,1.42539053 Z M30.5,48.5746095 L30.5,1.42539053 L11.6403124,25 L30.5,48.5746095 Z" id="Rectangle-34" stroke="#00E1FE" opacity="0.5"></path>
                <path d="M274.5,1.42539053 L274.5,48.5746095 L293.359688,25 L274.5,1.42539053 Z M19.5,48.5746095 L19.5,1.42539053 L0.640312424,25 L19.5,48.5746095 Z" id="Rectangle-34" stroke="#00E1FE" opacity="0.200000003"></path>
                <path d="M42.2403124,0.5 L22.6403124,25 L42.2403124,49.5 L253.759688,49.5 L273.359688,25 L253.759688,0.5 L42.2403124,0.5 Z" id="Rectangle-34" stroke="#00E1FE"></path>
                <rect id="Rectangle-4" opacity="0.336560236" x="0" y="0" width="294" height="50"></rect>
            </g>
            <g id="项目统计" transform="translate(167.000000, 182.500000) scale(-1, 1) translate(-167.000000, -182.500000) translate(12.000000, 91.000000)">
                <g id="Rectangle-2">
                    <use fill-opacity="0" fill="#00354A" fill-rule="evenodd" xlink:href="#path-1"></use>
                    <use fill="black" fill-opacity="1" filter="url(#filter-2)" xlink:href="#path-1"></use>
                    <path stroke="#007898" stroke-width="1" d="M27.3647483,9.5 L9.5,39.1973942 L9.5,173.5 L275.718988,173.5 L301.5,119.172538 L301.5,9.5 L27.3647483,9.5 Z"></path>
                </g>
                <g id="Combined-Shape" transform="translate(9.000000, 9.000000)">
                    <mask id="mask-4" fill="white">
                        <use xlink:href="#path-3"></use>
                    </mask>
                    <use id="Mask" fill-opacity="0" fill="#00354A" xlink:href="#path-3"></use>
                    <path d="M0,105 L2,105 L2,164 L0,164 L0,105 Z M36,105 L38,105 L38,164 L36,164 L36,105 Z M72,105 L74,105 L74,164 L72,164 L72,105 Z M4,130 L6,130 L6,164 L4,164 L4,130 Z M40,130 L42,130 L42,164 L40,164 L40,130 Z M76,130 L78,130 L78,164 L76,164 L76,130 Z M8,101 L10,101 L10,164 L8,164 L8,101 Z M44,101 L46,101 L46,164 L44,164 L44,101 Z M80,101 L82,101 L82,164 L80,164 L80,101 Z M12,85 L14,85 L14,164 L12,164 L12,85 Z M48,85 L50,85 L50,164 L48,164 L48,85 Z M84,85 L86,85 L86,164 L84,164 L84,85 Z M16,88 L18,88 L18,164 L16,164 L16,88 Z M52,88 L54,88 L54,164 L52,164 L52,88 Z M88,88 L90,88 L90,164 L88,164 L88,88 Z M20,98 L22,98 L22,164 L20,164 L20,98 Z M56,98 L58,98 L58,164 L56,164 L56,98 Z M92,98 L94,98 L94,164 L92,164 L92,98 Z M24,98 L26,98 L26,164 L24,164 L24,98 Z M60,98 L62,98 L62,164 L60,164 L60,98 Z M96,98 L98,98 L98,164 L96,164 L96,98 Z M28,91 L30,91 L30,164 L28,164 L28,91 Z M64,91 L66,91 L66,164 L64,164 L64,91 Z M100,91 L102,91 L102,164 L100,164 L100,91 Z M32,63 L34,63 L34,164 L32,164 L32,63 Z M68,63 L70,63 L70,164 L68,164 L68,63 Z M104,63 L106,63 L106,164 L104,164 L104,63 Z M108,105 L110,105 L110,164 L108,164 L108,105 Z M144,105 L146,105 L146,164 L144,164 L144,105 Z M180,105 L182,105 L182,164 L180,164 L180,105 Z M112,130 L114,130 L114,164 L112,164 L112,130 Z M148,130 L150,130 L150,164 L148,164 L148,130 Z M184,130 L186,130 L186,164 L184,164 L184,130 Z M116,101 L118,101 L118,164 L116,164 L116,101 Z M152,101 L154,101 L154,164 L152,164 L152,101 Z M188,101 L190,101 L190,164 L188,164 L188,101 Z M120,85 L122,85 L122,164 L120,164 L120,85 Z M156,85 L158,85 L158,164 L156,164 L156,85 Z M192,85 L194,85 L194,164 L192,164 L192,85 Z M124,88 L126,88 L126,164 L124,164 L124,88 Z M160,88 L162,88 L162,164 L160,164 L160,88 Z M196,88 L198,88 L198,164 L196,164 L196,88 Z M128,98 L130,98 L130,164 L128,164 L128,98 Z M164,98 L166,98 L166,164 L164,164 L164,98 Z M200,98 L202,98 L202,164 L200,164 L200,98 Z M132,98 L134,98 L134,164 L132,164 L132,98 Z M168,98 L170,98 L170,164 L168,164 L168,98 Z M204,98 L206,98 L206,164 L204,164 L204,98 Z M136,91 L138,91 L138,164 L136,164 L136,91 Z M172,91 L174,91 L174,164 L172,164 L172,91 Z M208,91 L210,91 L210,164 L208,164 L208,91 Z M140,63 L142,63 L142,164 L140,164 L140,63 Z M176,63 L178,63 L178,164 L176,164 L176,63 Z M212,63 L214,63 L214,164 L212,164 L212,63 Z M216,105 L218,105 L218,164 L216,164 L216,105 Z M252,105 L254,105 L254,164 L252,164 L252,105 Z M288,105 L290,105 L290,164 L288,164 L288,105 Z M220,130 L222,130 L222,164 L220,164 L220,130 Z M256,130 L258,130 L258,164 L256,164 L256,130 Z M224,101 L226,101 L226,164 L224,164 L224,101 Z M260,101 L262,101 L262,164 L260,164 L260,101 Z M228,85 L230,85 L230,164 L228,164 L228,85 Z M264,85 L266,85 L266,164 L264,164 L264,85 Z M232,88 L234,88 L234,164 L232,164 L232,88 Z M268,88 L270,88 L270,164 L268,164 L268,88 Z M236,98 L238,98 L238,164 L236,164 L236,98 Z M272,98 L274,98 L274,164 L272,164 L272,98 Z M240,98 L242,98 L242,164 L240,164 L240,98 Z M276,98 L278,98 L278,164 L276,164 L276,98 Z M244,91 L246,91 L246,164 L244,164 L244,91 Z M280,91 L282,91 L282,164 L280,164 L280,91 Z M248,63 L250,63 L250,164 L248,164 L248,63 Z M284,63 L286,63 L286,164 L284,164 L284,63 Z" fill="#FFFFFF" opacity="0.0700000003" mask="url(#mask-4)"></path>
                </g>
                <polyline id="Path-8" stroke="#2BD4EA" points="41.8242188 1 24.3111022 1 1 35.1738281 1 77.7734375"></polyline>
                <polyline id="Path-12" stroke="#2BD4EA" points="278.371094 0.55859375 309.828125 0.55859375 309.828125 31.4140625"></polyline>
                <polyline id="Path-12" stroke="#2BD4EA" transform="translate(16.728516, 167.427734) scale(-1, -1) translate(-16.728516, -167.427734) " points="1 152 32.4570312 152 32.4570312 182.855469"></polyline>
                <polyline id="Path-12" stroke="#2BD4EA" transform="translate(275.832023, 161.820738) scale(1, -1) translate(-275.832023, -161.820738) " points="250.371094 141.227413 281.828125 141.227413 301.292952 182.414062"></polyline>
                <rect id="Rectangle-3" x="0" y="0" width="310" height="183"></rect>
            </g>
            <g id="统计框" transform="translate(422.000000, 168.000000) scale(-1, 1) translate(-422.000000, -168.000000) translate(332.000000, 91.000000)">
                <g id="Rectangle-2">
                    <use fill="#F8FAFA" fill-rule="evenodd" xlink:href="#path-5"></use>
                    <path stroke="#EAEDEF" stroke-width="1" d="M8.41963131,0.5 L0.5,20.1555374 L0.5,153.5 L163.769013,153.5 L179.5,130.132537 L179.5,0.5 L8.41963131,0.5 Z"></path>
                </g>
                <g id="Combined-Shape">
                    <mask id="mask-7" fill="white">
                        <use xlink:href="#path-6"></use>
                    </mask>
                    <use id="Mask" fill-opacity="0" fill="#00354A" xlink:href="#path-6"></use>
                    <path d="M-113,105 L-111,105 L-111,164 L-113,164 L-113,105 Z M-77,105 L-75,105 L-75,164 L-77,164 L-77,105 Z M-41,105 L-39,105 L-39,164 L-41,164 L-41,105 Z M-109,130 L-107,130 L-107,164 L-109,164 L-109,130 Z M-73,130 L-71,130 L-71,164 L-73,164 L-73,130 Z M-37,130 L-35,130 L-35,164 L-37,164 L-37,130 Z M-105,101 L-103,101 L-103,164 L-105,164 L-105,101 Z M-69,101 L-67,101 L-67,164 L-69,164 L-69,101 Z M-33,101 L-31,101 L-31,164 L-33,164 L-33,101 Z M-101,85 L-99,85 L-99,164 L-101,164 L-101,85 Z M-65,85 L-63,85 L-63,164 L-65,164 L-65,85 Z M-29,85 L-27,85 L-27,164 L-29,164 L-29,85 Z M-97,88 L-95,88 L-95,164 L-97,164 L-97,88 Z M-61,88 L-59,88 L-59,164 L-61,164 L-61,88 Z M-25,88 L-23,88 L-23,164 L-25,164 L-25,88 Z M-93,98 L-91,98 L-91,164 L-93,164 L-93,98 Z M-57,98 L-55,98 L-55,164 L-57,164 L-57,98 Z M-21,98 L-19,98 L-19,164 L-21,164 L-21,98 Z M-89,98 L-87,98 L-87,164 L-89,164 L-89,98 Z M-53,98 L-51,98 L-51,164 L-53,164 L-53,98 Z M-17,98 L-15,98 L-15,164 L-17,164 L-17,98 Z M-85,91 L-83,91 L-83,164 L-85,164 L-85,91 Z M-49,91 L-47,91 L-47,164 L-49,164 L-49,91 Z M-13,91 L-11,91 L-11,164 L-13,164 L-13,91 Z M-81,63 L-79,63 L-79,164 L-81,164 L-81,63 Z M-45,63 L-43,63 L-43,164 L-45,164 L-45,63 Z M-9,63 L-7,63 L-7,164 L-9,164 L-9,63 Z M-5,105 L-3,105 L-3,164 L-5,164 L-5,105 Z M31,105 L33,105 L33,164 L31,164 L31,105 Z M67,105 L69,105 L69,164 L67,164 L67,105 Z M-1,130 L1,130 L1,164 L-1,164 L-1,130 Z M35,130 L37,130 L37,164 L35,164 L35,130 Z M71,130 L73,130 L73,164 L71,164 L71,130 Z M3,101 L5,101 L5,164 L3,164 L3,101 Z M39,101 L41,101 L41,164 L39,164 L39,101 Z M75,101 L77,101 L77,164 L75,164 L75,101 Z M7,85 L9,85 L9,164 L7,164 L7,85 Z M43,85 L45,85 L45,164 L43,164 L43,85 Z M79,85 L81,85 L81,164 L79,164 L79,85 Z M11,88 L13,88 L13,164 L11,164 L11,88 Z M47,88 L49,88 L49,164 L47,164 L47,88 Z M83,88 L85,88 L85,164 L83,164 L83,88 Z M15,98 L17,98 L17,164 L15,164 L15,98 Z M51,98 L53,98 L53,164 L51,164 L51,98 Z M87,98 L89,98 L89,164 L87,164 L87,98 Z M19,98 L21,98 L21,164 L19,164 L19,98 Z M55,98 L57,98 L57,164 L55,164 L55,98 Z M91,98 L93,98 L93,164 L91,164 L91,98 Z M23,91 L25,91 L25,164 L23,164 L23,91 Z M59,91 L61,91 L61,164 L59,164 L59,91 Z M95,91 L97,91 L97,164 L95,164 L95,91 Z M27,63 L29,63 L29,164 L27,164 L27,63 Z M63,63 L65,63 L65,164 L63,164 L63,63 Z M99,63 L101,63 L101,164 L99,164 L99,63 Z M103,105 L105,105 L105,164 L103,164 L103,105 Z M139,105 L141,105 L141,164 L139,164 L139,105 Z M175,105 L177,105 L177,164 L175,164 L175,105 Z M107,130 L109,130 L109,164 L107,164 L107,130 Z M143,130 L145,130 L145,164 L143,164 L143,130 Z M111,101 L113,101 L113,164 L111,164 L111,101 Z M147,101 L149,101 L149,164 L147,164 L147,101 Z M115,85 L117,85 L117,164 L115,164 L115,85 Z M151,85 L153,85 L153,164 L151,164 L151,85 Z M119,88 L121,88 L121,164 L119,164 L119,88 Z M155,88 L157,88 L157,164 L155,164 L155,88 Z M123,98 L125,98 L125,164 L123,164 L123,98 Z M159,98 L161,98 L161,164 L159,164 L159,98 Z M127,98 L129,98 L129,164 L127,164 L127,98 Z M163,98 L165,98 L165,164 L163,164 L163,98 Z M131,91 L133,91 L133,164 L131,164 L131,91 Z M167,91 L169,91 L169,164 L167,164 L167,91 Z M135,63 L137,63 L137,164 L135,164 L135,63 Z M171,63 L173,63 L173,164 L171,164 L171,63 Z" fill="#B2BFCB" opacity="0.119999997" mask="url(#mask-7)"></path>
                </g>
                <rect id="Rectangle-3" x="0" y="0" width="180" height="154"></rect>
            </g>
            <g id="缩小" transform="translate(10.000000, 324.000000)">
                <path d="M16.4285654,2.84217094e-14 L16.4285654,0.714247713 L19.2856403,0.714247713 L19.2856403,3.57143457 L20,3.57143457 L20,2.84217094e-14 L16.4285654,2.84217094e-14 Z M0.714359717,0.714247713 L3.57143457,0.714247713 L3.57143457,2.84217094e-14 L0,2.84217094e-14 L0,3.57143457 L0.714247713,3.57143457 L0.714247713,0.714247713 L0.714359717,0.714247713 Z M19.2856403,13.5713786 L16.4285654,13.5713786 L16.4285654,14.2855983 L20,14.2855983 L20,10.7143037 L19.2856403,10.7143037 L19.2856403,13.5713786 Z M0.714359717,10.7143037 L0,10.7143037 L0,14.2857103 L3.57143457,14.2857103 L3.57143457,13.5713786 L0.714359717,13.5713786 L0.714359717,10.7143037 Z" id="全屏" fill="#00E1FE"></path>
                <path d="M12.7744263,7.57673549 L12.7744263,5.58915429 C12.7744263,5.34546354 12.6002281,5.14791665 12.3853552,5.14791665 L7.70001221,5.14791665 L7.70001221,3.08842184 C7.70001221,2.840763 7.87421038,2.63999939 8.08909852,2.63999939 L14.7068547,2.63999939 C14.9217276,2.63999939 15.0959258,2.840763 15.0959258,3.08842184 L15.0959258,7.12838335 C15.0959258,7.37604219 14.9217276,7.57673549 14.7068547,7.57673549 L12.7744263,7.57673549 Z" id="Combined-Shape" fill="#00E1FE"></path>
                <path d="M12,6.44123764 L12,10.4164692 C12,10.66016 11.8258018,10.8576377 11.6109289,10.8576377 L4.99317277,10.8576377 C4.77828463,10.8576377 4.60408646,10.66016 4.60408646,10.4164692 L4.60408646,6.44123764 C4.60408646,6.19754689 4.77828463,6 4.99317277,6 L11.6109289,6 C11.8258018,6 12,6.19754689 12,6.44123764 Z" id="Path" fill="#00E1FE"></path>
                <rect id="Rectangle-3" x="0" y="0" width="20" height="15"></rect>
            </g>
            <g id="放大" transform="translate(40.000000, 324.000000)">
                <path d="M16.4285654,2.84217094e-14 L16.4285654,0.714247713 L19.2856403,0.714247713 L19.2856403,3.57143457 L20,3.57143457 L20,2.84217094e-14 L16.4285654,2.84217094e-14 Z M0.714359717,0.714247713 L3.57143457,0.714247713 L3.57143457,2.84217094e-14 L0,2.84217094e-14 L0,3.57143457 L0.714247713,3.57143457 L0.714247713,0.714247713 L0.714359717,0.714247713 Z M19.2856403,13.5713786 L16.4285654,13.5713786 L16.4285654,14.2855983 L20,14.2855983 L20,10.7143037 L19.2856403,10.7143037 L19.2856403,13.5713786 Z M0.714359717,10.7143037 L0,10.7143037 L0,14.2857103 L3.57143457,14.2857103 L3.57143457,13.5713786 L0.714359717,13.5713786 L0.714359717,10.7143037 Z" id="全屏" fill="#898989"></path>
                <path d="M16.3214995,4.161124 L16.3214995,10.1887013 C16.3214995,10.5582055 16.0219624,10.8576377 15.6524844,10.8576377 L4.27312772,10.8576377 C3.90362351,10.8576377 3.60408646,10.5582055 3.60408646,10.1887013 L3.60408646,4.161124 C3.60408646,3.79161979 3.90362351,3.49208274 4.27312772,3.49208274 L15.6524844,3.49208274 C16.0219624,3.49208274 16.3214995,3.79161979 16.3214995,4.161124 Z" id="Path" fill="#5E5E5E"></path>
                <rect id="Rectangle-3" x="0" y="0" width="20" height="15"></rect>
            </g>
            <g id="签约数量" transform="translate(10.000000, 349.000000)">
                <rect id="Rectangle" opacity="0" x="0" y="0" width="14" height="14"></rect>
                <path d="M9.52272838,3.17438038 L10.1488355,3.80738128 C10.3793126,4.04035655 10.3793126,4.41800947 10.1488355,4.65098474 L5.55679265,9.29140044 C5.32624597,9.52430536 4.95252979,9.52430536 4.72198311,9.29140044 L4.09558077,8.65899615 C3.86510371,8.42602088 3.86510371,8.04836795 4.09558077,7.81539269 L8.68791884,3.17467868 C8.91846552,2.94177377 9.2921817,2.94177377 9.52272838,3.17467868 L9.52272838,3.17438038 Z M3.01516955,10.0511805 L3.45471389,8.71865694 L4.70692819,9.98436043 L3.38859036,10.428535 C3.28250758,10.4642851 3.16554158,10.4363911 3.08646843,10.356485 C3.00739528,10.2765789 2.97979204,10.1583808 3.01516955,10.0511805 Z M3.38298166,11.4033922 L9.87725675,11.4033922 C10.0402881,11.4033922 10.1724511,11.5369474 10.1724511,11.7016961 C10.1724511,11.8664448 10.0402881,12 9.87725675,12 L3.38298166,12 C3.21995034,12 3.08778734,11.8664448 3.08778734,11.7016961 C3.08778734,11.5369474 3.21995034,11.4033922 3.38298166,11.4033922 Z" id="Combined-Shape" fill="#E6E6E6"></path>
            </g>
            <g id="签约数额" transform="translate(34.000000, 349.000000)">
                <rect id="Rectangle" opacity="0" x="0" y="0" width="14" height="14"></rect>
                <path d="M3,7 L4.66666667,7 L4.66666667,12 L3,12 L3,7 Z M6.33333333,2 L8,2 L8,12 L6.33333333,12 L6.33333333,2 Z M9.66666667,5.33333333 L11.3333333,5.33333333 L11.3333333,12 L9.66666667,12 L9.66666667,5.33333333 Z" id="Combined-Shape" fill="#E6E6E6"></path>
            </g>
            <g id="计划投资额" transform="translate(58.000000, 349.000000)">
                <rect id="Rectangle" opacity="0" x="0" y="0" width="14" height="14"></rect>
                <polygon id="Shape" fill="#E6E6E6" fill-rule="nonzero" points="4.49571231 13 7.27828492 8.3209267 4 7.98290923 6.03319502 3 9.78976487 3.38928978 7.26666667 6.94227117 11 7.32966198"></polygon>
            </g>
            <g id="签约数量" transform="translate(82.000000, 349.000000)">
                <rect id="Rectangle" opacity="0" x="0" y="0" width="14" height="14"></rect>
                <path d="M9.52272838,3.17438038 L10.1488355,3.80738128 C10.3793126,4.04035655 10.3793126,4.41800947 10.1488355,4.65098474 L5.55679265,9.29140044 C5.32624597,9.52430536 4.95252979,9.52430536 4.72198311,9.29140044 L4.09558077,8.65899615 C3.86510371,8.42602088 3.86510371,8.04836795 4.09558077,7.81539269 L8.68791884,3.17467868 C8.91846552,2.94177377 9.2921817,2.94177377 9.52272838,3.17467868 L9.52272838,3.17438038 Z M3.01516955,10.0511805 L3.45471389,8.71865694 L4.70692819,9.98436043 L3.38859036,10.428535 C3.28250758,10.4642851 3.16554158,10.4363911 3.08646843,10.356485 C3.00739528,10.2765789 2.97979204,10.1583808 3.01516955,10.0511805 Z M3.38298166,11.4033922 L9.87725675,11.4033922 C10.0402881,11.4033922 10.1724511,11.5369474 10.1724511,11.7016961 C10.1724511,11.8664448 10.0402881,12 9.87725675,12 L3.38298166,12 C3.21995034,12 3.08778734,11.8664448 3.08778734,11.7016961 C3.08778734,11.5369474 3.21995034,11.4033922 3.38298166,11.4033922 Z" id="Combined-Shape" fill="#5E5E5E"></path>
            </g>
            <g id="签约数额" transform="translate(106.000000, 349.000000)">
                <rect id="Rectangle" opacity="0" x="0" y="0" width="14" height="14"></rect>
                <path d="M3,7 L4.66666667,7 L4.66666667,12 L3,12 L3,7 Z M6.33333333,2 L8,2 L8,12 L6.33333333,12 L6.33333333,2 Z M9.66666667,5.33333333 L11.3333333,5.33333333 L11.3333333,12 L9.66666667,12 L9.66666667,5.33333333 Z" id="Combined-Shape" fill="#5E5E5E"></path>
            </g>
            <g id="计划投资额" transform="translate(130.000000, 349.000000)">
                <rect id="Rectangle" fill="#D8D8D8" opacity="0" x="0" y="0" width="14" height="14"></rect>
                <polygon id="Shape" fill="#5E5E5E" fill-rule="nonzero" points="4.49571231 13 7.27828492 8.3209267 4 7.98290923 6.03319502 3 9.78976487 3.38928978 7.26666667 6.94227117 11 7.32966198"></polygon>
            </g>
            <g id="浮出框" transform="translate(10.000000, 373.000000)">
                <g id="Combined-Shape">
                    <use fill="black" fill-opacity="1" filter="url(#filter-9)" xlink:href="#path-8"></use>
                    <use stroke="#00599B" stroke-width="1" fill-opacity="0.3" fill="#00599B" fill-rule="evenodd" xlink:href="#path-8"></use>
                </g>
                <rect id="Rectangle-3" x="0" y="0" width="108" height="46"></rect>
            </g>
            <g id="Group-2" transform="translate(128.000000, 376.000000)">
                <path d="M25.6494465,22.7562059 L4,22.7562059 C1.790861,22.7562059 9.5617958e-15,20.9843276 7.10542736e-15,18.7986049 L7.10542736e-15,3.95760103 C6.69603262e-15,1.77187834 1.790861,0 4,0 L55,0 C57.209139,0 59,1.77187834 59,3.95760103 L59,18.7986049 C59,20.9843276 57.209139,22.7562059 55,22.7562059 L38.3144531,22.7562059 L34.1505088,22.7562059 C34.0990223,22.8743922 34.0259706,22.9864781 33.931329,23.0873214 L30.6844493,26.6558564 C30.6147703,26.7301301 30.4750019,26.80475 30.4054323,26.8790237 L30.3357533,26.9531819 C29.9862092,27.1028835 29.495693,27.0315242 29.2141044,26.7376902 L25.9132762,23.1518996 C25.793732,23.027097 25.7071131,22.8934366 25.6494465,22.7562059 Z" id="浮出框小" fill="#5D899A"></path>
                <rect id="Rectangle-3" x="0" y="0" width="60" height="27"></rect>
            </g>
            <circle id="Oval-3" fill="#FA2837" cx="13" cy="287" r="3"></circle>
            <circle id="Oval-3" fill="#008CFF" cx="30" cy="287" r="3"></circle>
            <circle id="Oval-3" fill="#FECB2F" cx="62" cy="287" r="3"></circle>
            <circle id="Oval-3" fill="#CD4BEF" cx="78" cy="287" r="3"></circle>
            <circle id="Oval-3" fill="#3A9614" cx="46" cy="287" r="3"></circle>
            <g id="Group" transform="translate(10.000000, 300.000000)">
                <polygon id="向上" fill="#FA2837" transform="translate(6.992665, 7.367664) scale(-1, 1) rotate(90.000000) translate(-6.992665, -7.367664) " points="6.98997354 12.7353285 11.9853307 7.75589124 8.52149471 7.74912387 8.52149471 2 5.4584127 2 5.4584127 7.74912387 2 7.74912387"></polygon>
                <rect id="Rectangle" opacity="0" x="0" y="0" width="14" height="14"></rect>
            </g>
            <g id="Group" transform="translate(34.000000, 300.000000)">
                <polygon id="向上" fill="#008CFF" transform="translate(6.992665, 7.367664) scale(-1, 1) rotate(90.000000) translate(-6.992665, -7.367664) " points="6.98997354 12.7353285 11.9853307 7.75589124 8.52149471 7.74912387 8.52149471 2 5.4584127 2 5.4584127 7.74912387 2 7.74912387"></polygon>
                <rect id="Rectangle" opacity="0" x="0" y="0" width="14" height="14"></rect>
            </g>
            <g id="Group" transform="translate(58.000000, 300.000000)">
                <polygon id="向上" fill="#3A9614" transform="translate(6.992665, 7.367664) scale(-1, 1) rotate(90.000000) translate(-6.992665, -7.367664) " points="6.98997354 12.7353285 11.9853307 7.75589124 8.52149471 7.74912387 8.52149471 2 5.4584127 2 5.4584127 7.74912387 2 7.74912387"></polygon>
                <rect id="Rectangle" opacity="0" x="0" y="0" width="14" height="14"></rect>
            </g>
            <g id="Group" transform="translate(82.000000, 300.000000)">
                <polygon id="向上" fill="#FECB2F" transform="translate(6.992665, 7.367664) scale(-1, 1) rotate(90.000000) translate(-6.992665, -7.367664) " points="6.98997354 12.7353285 11.9853307 7.75589124 8.52149471 7.74912387 8.52149471 2 5.4584127 2 5.4584127 7.74912387 2 7.74912387"></polygon>
                <rect id="Rectangle" opacity="0" x="0" y="0" width="14" height="14"></rect>
            </g>
            <g id="Group" transform="translate(106.000000, 300.000000)">
                <polygon id="向上" fill="#CD4BEF" transform="translate(6.992665, 7.367664) scale(-1, 1) rotate(90.000000) translate(-6.992665, -7.367664) " points="6.98997354 12.7353285 11.9853307 7.75589124 8.52149471 7.74912387 8.52149471 2 5.4584127 2 5.4584127 7.74912387 2 7.74912387"></polygon>
                <rect id="Rectangle" opacity="0" x="0" y="0" width="14" height="14"></rect>
            </g>
        </g>
    </g>
</svg>